<svg xmlns="http://www.w3.org/2000/svg" xmlns:xlink="http://www.w3.org/1999/xlink" width="1500" zoomAndPan="magnify" viewBox="0 0 1125 599.999999" height="800" preserveAspectRatio="xMidYMid meet" version="1.0"><defs><clipPath id="9315277750"><path d="M 883.179688 251.496094 L 900.050781 251.496094 L 900.050781 470.25 L 883.179688 470.25 Z M 883.179688 251.496094 " clip-rule="nonzero"/></clipPath></defs><path stroke-linecap="butt" transform="matrix(5.659573, 0, 0, 5.659573, 75.992642, -3.884716)" fill="none" stroke-linejoin="miter" d="M 0.864743 26.885784 L 21.338213 26.885784 L 21.338213 62.084716 L 41.503853 62.084716 L 41.503853 81.999811 L 0.864743 81.999811 Z M 0.864743 26.885784 " stroke="#89c07d" stroke-width="5.906" stroke-opacity="1" stroke-miterlimit="4"/><path fill="#d4efcb" d="M 80.890625 148.257812 L 196.761719 148.257812 L 196.761719 347.453125 L 310.835938 347.453125 L 310.835938 460.199219 L 80.890625 460.199219 Z M 80.890625 148.257812 " fill-opacity="1" fill-rule="nonzero"/><path stroke-linecap="butt" transform="matrix(4.730426, 0, 0, 4.730426, 230.781963, 23.109892)" fill="none" stroke-linejoin="miter" d="M 30.949759 83.5762 C 26.797781 83.5762 22.895186 82.813187 19.242799 81.288813 C 15.603625 79.763614 12.405412 77.681019 9.649813 75.041028 C 6.89504 72.388651 4.729042 69.292834 3.152644 65.756056 C 1.576247 62.206065 0.787635 58.431465 0.787635 54.433081 C 0.787635 50.396711 1.576247 46.62211 3.152644 43.110105 C 4.729042 39.586539 6.89504 36.497329 9.649813 33.844952 C 12.405412 31.191748 15.603625 29.109979 19.242799 27.597166 C 22.895186 26.071967 26.797781 25.30978 30.949759 25.30978 C 35.089351 25.30978 38.98534 26.071967 42.638553 27.597166 C 46.290939 29.109979 49.494106 31.191748 52.249705 33.844952 C 55.005304 36.497329 57.15231 39.586539 58.689896 43.110105 C 60.240695 46.62211 61.016094 50.396711 61.016094 54.433081 C 61.016094 58.431465 60.240695 62.206065 58.689896 65.756056 C 57.15231 69.292834 55.005304 72.388651 52.249705 75.041028 C 49.494106 77.681019 46.290939 79.763614 42.638553 81.288813 C 38.98534 82.813187 35.089351 83.5762 30.949759 83.5762 Z M 23.068598 54.433081 C 23.068598 56.585866 23.830785 58.425685 25.355984 59.950058 C 26.880358 61.476084 28.720177 62.238271 30.872963 62.238271 C 33.026574 62.238271 34.872173 61.476084 36.409759 59.950058 C 37.960558 58.425685 38.735957 56.585866 38.735957 54.433081 C 38.735957 52.279469 37.960558 50.434696 36.409759 48.896284 C 34.872173 47.346312 33.026574 46.570912 30.872963 46.570912 C 28.720177 46.570912 26.880358 47.346312 25.355984 48.896284 C 23.830785 50.434696 23.068598 52.279469 23.068598 54.433081 Z M 23.068598 54.433081 " stroke="#89c07d" stroke-width="7.875" stroke-opacity="1" stroke-miterlimit="4"/><path fill="#d4efcb" d="M 377.160156 418.449219 C 357.539062 418.449219 339.101562 414.847656 321.84375 407.648438 C 304.582031 400.445312 289.4375 390.574219 276.402344 378.039062 C 263.367188 365.5 253.121094 350.851562 245.667969 334.085938 C 238.226562 317.324219 234.503906 299.511719 234.503906 280.640625 C 234.503906 261.519531 238.226562 243.644531 245.667969 227.011719 C 253.121094 210.371094 263.367188 195.78125 276.402344 183.242188 C 289.4375 170.703125 304.582031 160.835938 321.84375 153.632812 C 339.101562 146.433594 357.539062 142.832031 377.160156 142.832031 C 396.777344 142.832031 415.214844 146.433594 432.472656 153.632812 C 449.730469 160.835938 464.878906 170.703125 477.914062 183.242188 C 490.949219 195.78125 501.125 210.371094 508.449219 227.011719 C 515.78125 243.644531 519.449219 261.519531 519.449219 280.640625 C 519.449219 299.511719 515.78125 317.324219 508.449219 334.085938 C 501.125 350.851562 490.949219 365.5 477.914062 378.039062 C 464.878906 390.574219 449.730469 400.445312 432.472656 407.648438 C 415.214844 414.847656 396.777344 418.449219 377.160156 418.449219 Z M 339.90625 280.640625 C 339.90625 290.820312 343.503906 299.511719 350.710938 306.710938 C 357.910156 313.914062 366.605469 317.511719 376.796875 317.511719 C 386.972656 317.511719 395.722656 313.914062 403.046875 306.710938 C 410.367188 299.511719 414.03125 290.820312 414.03125 280.640625 C 414.03125 270.460938 410.367188 261.710938 403.046875 254.386719 C 395.722656 247.054688 386.972656 243.386719 376.796875 243.386719 C 366.605469 243.386719 357.910156 247.054688 350.710938 254.386719 C 343.503906 261.710938 339.90625 270.460938 339.90625 280.640625 Z M 339.90625 280.640625 " fill-opacity="1" fill-rule="nonzero"/><path stroke-linecap="butt" transform="matrix(5.810973, 0, 0, 5.810974, 448.726085, -19.346639)" fill="none" stroke-linejoin="miter" d="M 30.950417 83.576881 C 26.797444 83.576881 22.895209 82.813911 19.24304 81.288645 C 15.603643 79.763379 12.405895 77.681515 9.650467 75.041037 C 6.895039 72.387786 4.729147 69.292887 3.152792 65.755668 C 1.576437 62.206349 0.787923 58.431836 0.787923 54.433475 C 0.787923 50.396124 1.576437 46.622283 3.152792 43.110609 C 4.729147 39.586162 6.895039 36.497985 9.650467 33.844734 C 12.405895 31.192156 15.603643 29.108948 19.24304 27.597126 C 22.895209 26.07186 26.797444 25.309563 30.950417 25.309563 C 35.089273 25.309563 38.985458 26.07186 42.637627 27.597126 C 46.290468 29.108948 49.494939 31.192156 52.250367 33.844734 C 55.005123 36.497985 57.152192 39.586162 58.690231 43.110609 C 60.240369 46.622283 61.015438 50.396124 61.015438 54.433475 C 61.015438 58.431836 60.240369 62.206349 58.690231 65.755668 C 57.152192 69.292887 55.005123 72.387786 52.250367 75.041037 C 49.494939 77.681515 46.290468 79.763379 42.637627 81.288645 C 38.985458 82.813911 35.089273 83.576881 30.950417 83.576881 Z M 23.068642 54.433475 C 23.068642 56.586594 23.830939 58.425114 25.356205 59.95038 C 26.880799 61.475646 28.719992 62.237943 30.873112 62.237943 C 33.026231 62.237943 34.871474 61.475646 36.409512 59.95038 C 37.960323 58.425114 38.736064 56.586594 38.736064 54.433475 C 38.736064 52.280355 37.960323 50.43444 36.409512 48.897074 C 34.871474 47.346264 33.026231 46.571195 30.873112 46.571195 C 28.719992 46.571195 26.880799 47.346264 25.356205 48.897074 C 23.830939 50.43444 23.068642 52.280355 23.068642 54.433475 Z M 23.068642 54.433475 " stroke="#89c07d" stroke-width="6.005" stroke-opacity="1" stroke-miterlimit="4"/><path fill="#d4efcb" d="M 628.550781 466.300781 C 604.453125 466.300781 581.804688 461.875 560.597656 453.035156 C 539.398438 444.191406 520.789062 432.066406 504.769531 416.660156 C 488.757812 401.253906 476.171875 383.257812 467.019531 362.667969 C 457.878906 342.082031 453.308594 320.195312 453.308594 297.011719 C 453.308594 273.523438 457.878906 251.566406 467.019531 231.128906 C 476.171875 210.683594 488.757812 192.757812 504.769531 177.351562 C 520.789062 161.945312 539.398438 149.820312 560.597656 140.976562 C 581.804688 132.132812 604.453125 127.710938 628.550781 127.710938 C 652.644531 127.710938 675.289062 132.132812 696.488281 140.976562 C 717.695312 149.820312 736.304688 161.945312 752.316406 177.351562 C 768.328125 192.757812 780.832031 210.683594 789.832031 231.128906 C 798.832031 251.566406 803.328125 273.523438 803.328125 297.011719 C 803.328125 320.195312 798.832031 342.082031 789.832031 362.667969 C 780.832031 383.257812 768.328125 401.253906 752.316406 416.660156 C 736.304688 432.066406 717.695312 444.191406 696.488281 453.035156 C 675.289062 461.875 652.644531 466.300781 628.550781 466.300781 Z M 582.796875 297.011719 C 582.796875 309.519531 587.21875 320.195312 596.0625 329.039062 C 604.902344 337.882812 615.582031 342.304688 628.085938 342.304688 C 640.59375 342.304688 651.34375 337.882812 660.34375 329.039062 C 669.34375 320.195312 673.839844 309.519531 673.839844 297.011719 C 673.839844 284.507812 669.34375 273.753906 660.34375 264.757812 C 651.34375 255.757812 640.59375 251.257812 628.085938 251.257812 C 615.582031 251.257812 604.902344 255.757812 596.0625 264.757812 C 587.21875 273.753906 582.796875 284.507812 582.796875 297.011719 Z M 582.796875 297.011719 " fill-opacity="1" fill-rule="nonzero"/><path stroke-linecap="butt" transform="matrix(6.175433, 0, 0, 6.175434, 749.676185, -39.392058)" fill="none" stroke-linejoin="miter" d="M 0.865259 81.999783 L 0.865259 26.885994 L 27.086216 26.885994 C 31.648143 26.885994 35.621169 27.725384 39.004661 29.404163 C 42.400804 31.083574 45.162503 33.325952 47.29039 36.132561 C 49.417645 38.939171 50.871869 42.008919 51.653697 45.340543 C 52.435525 48.672166 52.551281 51.998728 51.9997 55.317701 C 51.448752 58.624022 50.186189 61.680487 48.213276 64.487097 C 46.252381 67.294339 43.553937 69.536717 40.119208 71.215495 C 36.685112 72.894274 32.475514 73.733664 27.489781 73.733664 L 22.760862 73.733664 L 22.760862 54.606086 L 27.489781 54.606086 C 29.001568 54.606086 30.123706 54.215172 30.854297 53.433977 C 31.597539 52.638866 31.968844 51.716613 31.968844 50.66532 C 31.968844 49.61466 31.597539 48.698733 30.854297 47.916272 C 30.123706 47.122426 29.001568 46.724555 27.489781 46.724555 L 21.338265 46.724555 L 21.338265 81.999783 Z M 0.865259 81.999783 " stroke="#89c07d" stroke-width="5.906" stroke-opacity="1" stroke-miterlimit="4"/><path fill="#d4efcb" d="M 755.019531 466.992188 L 755.019531 126.617188 L 916.945312 126.617188 C 945.152344 126.617188 969.714844 131.804688 990.621094 142.179688 C 1011.53125 152.550781 1028.542969 166.40625 1041.667969 183.75 C 1054.804688 201.097656 1063.800781 220.066406 1068.664062 240.652344 C 1073.527344 261.230469 1074.257812 281.734375 1070.847656 302.15625 C 1067.441406 322.582031 1059.660156 341.46875 1047.507812 358.8125 C 1035.355469 376.148438 1018.660156 390.003906 997.421875 400.378906 C 976.191406 410.746094 950.175781 415.929688 919.378906 415.929688 L 890.199219 415.929688 L 890.199219 297.773438 L 919.378906 297.773438 C 928.78125 297.773438 935.753906 295.339844 940.285156 290.476562 C 944.828125 285.613281 947.101562 279.941406 947.101562 273.457031 C 947.101562 266.972656 944.828125 261.304688 940.285156 256.453125 C 935.753906 251.589844 928.78125 249.15625 919.378906 249.15625 L 881.445312 249.15625 L 881.445312 466.992188 Z M 755.019531 466.992188 " fill-opacity="1" fill-rule="nonzero"/><path stroke-linecap="butt" transform="matrix(0.894717, -0.24555, 0.24555, 0.894717, 223.039532, 105.255191)" fill="none" stroke-linejoin="miter" d="M 48.863591 87.332398 L 48.863048 102.001687 L 6.369889 102.001001 L 6.364085 28.669683 L 48.866479 28.668538 L 48.867051 43.333766 L 22.535362 43.337115 L 22.534255 57.897102 L 47.786215 57.898674 L 47.786786 72.563903 L 22.538887 72.563444 L 22.537077 87.332801 Z M 48.863591 87.332398 " stroke="#89c07d" stroke-width="26.829" stroke-opacity="1" stroke-miterlimit="4"/><path stroke-linecap="butt" transform="matrix(0.894717, -0.24555, 0.24555, 0.894717, 274.951102, 91.008211)" fill="none" stroke-linejoin="miter" d="M 59.321319 77.092645 L 77.327636 77.087811 C 75.678216 82.127444 73.09177 86.604303 69.559064 90.520217 C 66.031533 94.433186 61.857291 97.505052 57.027104 99.737645 C 52.215386 101.966576 47.01551 103.080454 41.415294 103.075938 C 36.236764 103.078003 31.363315 102.111613 26.796778 100.186003 C 22.236926 98.236032 18.207459 95.514782 14.713551 92.019308 C 11.239943 88.529405 8.530463 84.498277 6.578824 79.932931 C 4.62607 75.371645 3.653835 70.498791 3.655829 65.321376 C 3.653764 60.142847 4.628274 55.271627 6.579359 50.707716 C 8.526384 46.14269 11.236171 42.123175 14.71684 38.651399 C 18.208254 35.156377 22.235322 32.445783 26.804332 30.512613 C 31.364504 28.56392 36.234412 27.58651 41.415887 27.589619 C 47.013157 27.588961 52.20282 28.707622 56.976039 30.93008 C 61.768444 33.162169 65.929603 36.198979 69.454341 40.043455 C 72.983139 43.889045 75.574903 48.333189 77.222626 53.369596 L 59.214478 53.365196 C 57.70506 50.051984 55.290934 47.442247 51.969873 45.544106 C 48.673569 43.635295 45.151235 42.677342 41.413937 42.677648 C 37.462094 42.680197 33.86274 43.705055 30.61882 45.757399 C 27.387081 47.813085 24.815973 50.547791 22.902155 53.973697 C 21.007203 57.378585 20.060649 61.161636 20.058434 65.321735 C 20.059882 69.500302 21.007612 73.30115 22.90274 76.720217 C 24.814504 80.126388 27.387217 82.858234 30.621992 84.911697 C 33.866002 86.963328 37.464287 87.994517 41.41207 87.990854 C 45.222847 87.99325 48.774914 86.981609 52.079339 84.963335 C 55.397057 82.944343 57.811422 80.319426 59.321319 77.092645 Z M 59.321319 77.092645 " stroke="#89c07d" stroke-width="26.829" stroke-opacity="1" stroke-miterlimit="4"/><path stroke-linecap="butt" transform="matrix(0.894717, -0.24555, 0.24555, 0.894717, 348.958872, 70.697302)" fill="none" stroke-linejoin="miter" d="M 62.981335 65.220287 C 62.97561 61.407282 61.968747 57.869623 59.948564 54.603969 C 57.950192 51.322471 55.309022 48.680984 52.025052 46.679508 C 48.762894 44.662189 45.224396 43.651775 41.413619 43.649379 C 37.676321 43.649685 34.146782 44.658777 30.829063 46.677769 C 27.529096 48.679803 24.86508 51.323522 22.85031 54.608209 C 20.850346 57.870764 19.85028 61.40337 19.84677 65.218207 C 19.847076 68.955505 20.848048 72.482815 22.849685 75.800136 C 24.86796 79.10456 27.526806 81.777093 30.826939 83.83103 C 34.148488 85.886478 37.674408 86.910904 41.411707 86.910598 C 45.222484 86.912994 48.761654 85.884715 52.022928 83.832769 C 55.307846 81.774214 57.950127 79.098334 59.950885 75.80107 C 61.970509 72.482788 62.981641 68.957585 62.981335 65.220287 Z M 79.169241 65.318895 C 79.170423 70.357473 78.161677 75.16254 76.141173 79.724864 C 74.128789 84.289415 71.37283 88.318088 67.873295 91.810882 C 64.399236 95.306302 60.395734 98.05829 55.868684 100.077196 C 51.33797 102.077633 46.52156 103.082823 41.414678 103.078356 C 36.3761 103.079537 31.572864 102.080026 27.010143 100.076877 C 22.442645 98.059319 18.418032 95.304474 14.923009 91.81306 C 11.451629 88.315036 8.701152 84.290121 6.684154 79.724301 C 4.666042 75.162541 3.656395 70.362372 3.655214 65.323795 C 3.655223 60.233153 4.666197 55.419965 6.681847 50.891237 C 8.701954 46.346269 11.448282 42.336782 14.926005 38.859831 C 18.417419 35.364809 22.449341 32.62062 27.006644 30.618749 C 31.573579 28.597691 36.376693 27.593219 41.416386 27.587977 C 46.524382 27.588384 51.338685 28.595298 55.870359 30.616122 C 60.398371 32.618477 64.402683 35.367751 67.876291 38.857654 C 71.366537 42.334659 74.125531 46.344449 76.142926 50.892914 C 78.161832 55.419965 79.172196 60.233428 79.169241 65.318895 Z M 79.169241 65.318895 " stroke="#89c07d" stroke-width="26.829" stroke-opacity="1" stroke-miterlimit="4"/><path fill="#d4efcb" d="M 288.183594 171.382812 L 291.789062 184.515625 L 253.777344 194.957031 L 235.78125 129.351562 L 273.792969 118.914062 L 277.382812 132.015625 L 253.84375 138.480469 L 257.417969 151.515625 L 279.996094 145.3125 L 283.601562 158.449219 L 261.023438 164.652344 L 264.644531 177.851562 Z M 288.183594 171.382812 " fill-opacity="1" fill-rule="nonzero"/><path fill="#d4efcb" d="M 346.945312 145.425781 L 363.054688 141.007812 C 362.8125 145.90625 361.589844 150.535156 359.398438 154.902344 C 357.214844 159.269531 354.242188 163.050781 350.484375 166.234375 C 346.71875 169.410156 342.332031 171.6875 337.316406 173.066406 C 332.671875 174.335938 328.074219 174.664062 323.519531 174.042969 C 318.964844 173.425781 314.695312 171.988281 310.71875 169.722656 C 306.734375 167.464844 303.316406 164.53125 300.460938 160.925781 C 297.609375 157.316406 295.542969 153.195312 294.273438 148.550781 C 292.996094 143.933594 292.667969 139.347656 293.28125 134.789062 C 293.902344 130.222656 295.347656 125.949219 297.617188 121.96875 C 299.878906 117.992188 302.800781 114.570312 306.398438 111.714844 C 310.007812 108.859375 314.128906 106.796875 318.773438 105.527344 C 323.789062 104.148438 328.707031 103.867188 333.527344 104.683594 C 338.359375 105.5 342.816406 107.195312 346.910156 109.777344 C 351.011719 112.351562 354.421875 115.683594 357.132812 119.785156 L 341.023438 124.21875 C 338.859375 121.628906 336.0625 119.894531 332.636719 119.007812 C 329.214844 118.113281 325.835938 118.128906 322.496094 119.039062 C 318.957031 120.011719 315.984375 121.8125 313.597656 124.433594 C 311.203125 127.058594 309.566406 130.136719 308.699219 133.664062 C 307.839844 137.183594 307.921875 140.804688 308.949219 144.53125 C 309.972656 148.269531 311.75 151.4375 314.289062 154.027344 C 316.839844 156.605469 319.808594 158.421875 323.207031 159.46875 C 326.601562 160.507812 330.070312 160.539062 333.609375 159.566406 C 337.019531 158.632812 339.949219 156.855469 342.410156 154.242188 C 344.878906 151.628906 346.390625 148.691406 346.945312 145.425781 Z M 346.945312 145.425781 " fill-opacity="1" fill-rule="nonzero"/><path fill="#d4efcb" d="M 421.332031 113.585938 C 420.394531 110.175781 418.625 107.261719 416.023438 104.832031 C 413.417969 102.398438 410.402344 100.683594 406.972656 99.6875 C 403.554688 98.6875 400.140625 98.65625 396.734375 99.589844 C 393.378906 100.507812 390.472656 102.269531 388.015625 104.882812 C 385.554688 107.496094 383.824219 110.519531 382.824219 113.949219 C 381.816406 117.367188 381.785156 120.78125 382.722656 124.1875 C 383.636719 127.527344 385.402344 130.4375 388.015625 132.90625 C 390.640625 135.367188 393.679688 137.105469 397.132812 138.132812 C 400.59375 139.148438 404 139.199219 407.355469 138.28125 C 410.761719 137.347656 413.675781 135.558594 416.105469 132.921875 C 418.527344 130.289062 420.230469 127.242188 421.214844 123.789062 C 422.207031 120.328125 422.246094 116.925781 421.332031 113.585938 Z M 435.824219 109.695312 C 437.054688 114.207031 437.332031 118.757812 436.648438 123.34375 C 435.976562 127.921875 434.503906 132.203125 432.234375 136.179688 C 429.972656 140.148438 427.058594 143.589844 423.5 146.503906 C 419.945312 149.414062 415.890625 151.496094 411.324219 152.753906 C 406.8125 153.992188 402.261719 154.273438 397.675781 153.597656 C 393.097656 152.917969 388.820312 151.445312 384.839844 149.183594 C 380.871094 146.910156 377.421875 143.984375 374.503906 140.398438 C 371.589844 136.804688 369.519531 132.753906 368.28125 128.242188 C 367.027344 123.6875 366.742188 119.136719 367.421875 114.59375 C 368.109375 110.039062 369.585938 105.777344 371.855469 101.808594 C 374.113281 97.828125 377.039062 94.375 380.621094 91.453125 C 384.214844 88.53125 388.269531 86.453125 392.78125 85.214844 C 397.347656 83.957031 401.898438 83.675781 406.445312 84.371094 C 410.996094 85.058594 415.261719 86.535156 419.230469 88.804688 C 423.210938 91.066406 426.660156 93.976562 429.570312 97.539062 C 432.480469 101.089844 434.566406 105.144531 435.824219 109.695312 Z M 435.824219 109.695312 " fill-opacity="1" fill-rule="nonzero"/><g clip-path="url(#9315277750)"><path fill="#89c07d" d="M 883.179688 251.496094 L 900.050781 251.496094 L 900.050781 470.253906 L 883.179688 470.253906 Z M 883.179688 251.496094 " fill-opacity="1" fill-rule="nonzero"/></g></svg>